<svg width="36" height="37" viewBox="0 0 36 37" fill="none" xmlns="http://www.w3.org/2000/svg">
<path d="M13.8201 0.779999C12.8123 0.779999 11.9525 1.43852 11.6263 2.34H7.75069C7.67123 2.31909 7.58896 2.31086 7.50694 2.31562C7.48217 2.32254 7.45777 2.33067 7.43381 2.34H2.90006C1.61698 2.34 0.560059 3.39692 0.560059 4.68V31.98C0.560059 33.2631 1.61698 34.32 2.90006 34.32H16.9401C16.9401 35.6031 17.997 36.66 19.2801 36.66H33.3201C34.6031 36.66 35.6601 35.6031 35.6601 34.32V16.38C35.6601 15.0969 34.6031 14.04 33.3201 14.04H27.0801V4.68C27.0801 3.39692 26.0231 2.34 24.7401 2.34H16.0138C15.6876 1.43852 14.8278 0.779999 13.8201 0.779999ZM13.8201 2.34C14.2092 2.34 14.509 2.60789 14.5757 2.97375C14.5573 3.07038 14.5573 3.16962 14.5757 3.26625C14.509 3.63211 14.2092 3.9 13.8201 3.9C13.4048 3.9 13.0755 3.59699 13.0401 3.19312C13.0412 3.16876 13.0412 3.14436 13.0401 3.12C13.0401 2.67998 13.38 2.34 13.8201 2.34ZM2.90006 3.9H6.80006V6.24C6.80006 7.52307 7.85698 8.58 9.14006 8.58H18.5001C19.7831 8.58 20.8401 7.52307 20.8401 6.24V3.9H24.7401C25.1808 3.9 25.5201 4.23927 25.5201 4.68V14.04H19.2801C17.997 14.04 16.9401 15.0969 16.9401 16.38V32.76H2.90006C2.45934 32.76 2.12006 32.4207 2.12006 31.98V4.68C2.12006 4.23927 2.45934 3.9 2.90006 3.9ZM8.36006 3.9H11.6263C11.9525 4.80148 12.8123 5.46 13.8201 5.46C14.8278 5.46 15.6876 4.80148 16.0138 3.9H19.2801V6.24C19.2801 6.68072 18.9408 7.02 18.5001 7.02H9.14006C8.69934 7.02 8.36006 6.68072 8.36006 6.24V3.9ZM9.14006 11.7V16.38H7.58006V14.04H6.02006V16.38H4.46006V17.94H15.3801V16.38H13.8201V13.26H12.2601V16.38H10.7001V11.7H9.14006ZM19.2801 15.6H26.1538H26.4707H33.3201C33.7608 15.6 34.1001 15.9393 34.1001 16.38V34.32C34.1001 34.7607 33.7608 35.1 33.3201 35.1H19.2801C18.8393 35.1 18.5001 34.7607 18.5001 34.32V33.6862C18.5217 33.5817 18.5217 33.4739 18.5001 33.3694V16.38C18.5001 15.9393 18.8393 15.6 19.2801 15.6ZM20.6938 17.16C20.5132 17.1945 20.3505 17.2916 20.2346 17.4343C20.1186 17.5771 20.0568 17.7561 20.0601 17.94V21.06C20.0601 21.2669 20.1423 21.4652 20.2885 21.6115C20.4348 21.7578 20.6332 21.84 20.8401 21.84H31.7601C31.9669 21.84 32.1653 21.7578 32.3116 21.6115C32.4579 21.4652 32.54 21.2669 32.5401 21.06V17.94C32.54 17.7331 32.4579 17.5347 32.3116 17.3885C32.1653 17.2422 31.9669 17.16 31.7601 17.16H20.8401C20.8157 17.1589 20.7913 17.1589 20.7669 17.16C20.7426 17.1589 20.7182 17.1589 20.6938 17.16ZM21.6201 18.72H30.9801V20.28H21.6201V18.72ZM9.14006 21.06C6.56461 21.06 4.46006 23.1645 4.46006 25.74C4.46006 28.3154 6.56461 30.42 9.14006 30.42C11.7155 30.42 13.8201 28.3154 13.8201 25.74C13.8201 23.1645 11.7155 21.06 9.14006 21.06ZM9.14006 22.62V25.74H12.2601C12.2601 27.4724 10.8724 28.86 9.14006 28.86C7.40769 28.86 6.02006 27.4724 6.02006 25.74C6.02006 24.0076 7.40769 22.62 9.14006 22.62ZM20.8401 23.4C20.4095 23.4 20.0601 23.7494 20.0601 24.18V24.96C20.0601 25.3906 20.4095 25.74 20.8401 25.74H22.4001C22.8306 25.74 23.1801 25.3906 23.1801 24.96V24.18C23.1801 23.7494 22.8306 23.4 22.4001 23.4H20.8401ZM25.5201 23.4C25.0895 23.4 24.7401 23.7494 24.7401 24.18V24.96C24.7401 25.3906 25.0895 25.74 25.5201 25.74H27.0801C27.5106 25.74 27.8601 25.3906 27.8601 24.96V24.18C27.8601 23.7494 27.5106 23.4 27.0801 23.4H25.5201ZM30.2001 23.4C29.7695 23.4 29.4201 23.7494 29.4201 24.18V24.96C29.4201 25.3906 29.7695 25.74 30.2001 25.74H31.7601C32.1906 25.74 32.5401 25.3906 32.5401 24.96V24.18C32.5401 23.7494 32.1906 23.4 31.7601 23.4H30.2001ZM20.8401 27.3C20.4095 27.3 20.0601 27.6494 20.0601 28.08V28.86C20.0601 29.2906 20.4095 29.64 20.8401 29.64H22.4001C22.8306 29.64 23.1801 29.2906 23.1801 28.86V28.08C23.1801 27.6494 22.8306 27.3 22.4001 27.3H20.8401ZM25.5201 27.3C25.0895 27.3 24.7401 27.6494 24.7401 28.08V28.86C24.7401 29.2906 25.0895 29.64 25.5201 29.64H27.0801C27.5106 29.64 27.8601 29.2906 27.8601 28.86V28.08C27.8601 27.6494 27.5106 27.3 27.0801 27.3H25.5201ZM30.2001 27.3C29.7695 27.3 29.4201 27.6494 29.4201 28.08V28.86C29.4201 29.2906 29.7695 29.64 30.2001 29.64H31.7601C32.1906 29.64 32.5401 29.2906 32.5401 28.86V28.08C32.5401 27.6494 32.1906 27.3 31.7601 27.3H30.2001ZM20.8401 31.2C20.4095 31.2 20.0601 31.5494 20.0601 31.98V32.76C20.0601 33.1906 20.4095 33.54 20.8401 33.54H22.4001C22.8306 33.54 23.1801 33.1906 23.1801 32.76V31.98C23.1801 31.5494 22.8306 31.2 22.4001 31.2H20.8401ZM25.5201 31.2C25.0895 31.2 24.7401 31.5494 24.7401 31.98V32.76C24.7401 33.1906 25.0895 33.54 25.5201 33.54H27.0801C27.5106 33.54 27.8601 33.1906 27.8601 32.76V31.98C27.8601 31.5494 27.5106 31.2 27.0801 31.2H25.5201ZM30.2001 31.2C29.7695 31.2 29.4201 31.5494 29.4201 31.98V32.76C29.4201 33.1906 29.7695 33.54 30.2001 33.54H31.7601C32.1906 33.54 32.5401 33.1906 32.5401 32.76V31.98C32.5401 31.5494 32.1906 31.2 31.7601 31.2H30.2001Z" fill="#BFBFBF"/>
</svg>
