<svg width="34" height="34" viewBox="0 0 34 34" fill="none" xmlns="http://www.w3.org/2000/svg">
<path d="M30.5956 28.9854V27.1997C30.5956 26.9745 30.5063 26.7585 30.3472 26.5992C30.1881 26.4398 29.9722 26.3501 29.747 26.3497V14.4503C29.8586 14.4503 29.9692 14.4283 30.0723 14.3856C30.1754 14.3429 30.2691 14.2803 30.348 14.2014C30.4269 14.1224 30.4895 14.0287 30.5323 13.9256C30.575 13.8225 30.5969 13.7119 30.5969 13.6003V11.9003H31.8685C32.8499 11.9003 33.6759 11.2482 33.9269 10.2767C34.1812 9.28057 33.7582 8.28912 32.8731 7.80502L20.0314 0.779195C19.1022 0.267883 18.0589 -0.000228882 16.9983 -0.000228882C15.9377 -0.000228882 14.8944 0.267883 13.9652 0.779195L1.12879 7.80435C0.242359 8.28912 -0.181271 9.2819 0.0730396 10.2767C0.321374 11.2475 1.14739 11.9003 2.13143 11.9003H3.40099V13.6003C3.40099 13.8255 3.49035 14.0415 3.64945 14.2009C3.80856 14.3603 4.02439 14.45 4.24958 14.4503V26.3497C4.02416 26.3497 3.80799 26.4393 3.6486 26.5987C3.48921 26.7581 3.39966 26.9743 3.39966 27.1997V28.9854C2.44054 29.1826 1.57872 29.7045 0.959447 30.463C0.340177 31.2216 0.00132421 32.1705 0 33.1498L0 33.9998H33.9966V33.1498C33.9952 32.1703 33.6562 31.2213 33.0366 30.4627C32.4171 29.7041 31.555 29.1823 30.5956 28.9854ZM5.09816 28.0497H10.197V28.8997H5.10082L5.09816 28.0497ZM11.0469 26.3497V14.4503C11.1585 14.4503 11.269 14.4283 11.3722 14.3856C11.4753 14.3429 11.569 14.2803 11.6479 14.2014C11.7268 14.1224 11.7894 14.0287 11.8321 13.9256C11.8748 13.8225 11.8968 13.7119 11.8968 13.6003V11.9003H12.7487V13.6003C12.7487 13.7119 12.7707 13.8225 12.8134 13.9256C12.8561 14.0287 12.9187 14.1224 12.9977 14.2014C13.0766 14.2803 13.1703 14.3429 13.2734 14.3856C13.3765 14.4283 13.487 14.4503 13.5986 14.4503V26.3497C13.3732 26.3497 13.1571 26.4393 12.9977 26.5987C12.8383 26.7581 12.7487 26.9743 12.7487 27.1997V28.8997H11.8988V27.1997C11.8988 26.9744 11.8094 26.7583 11.6501 26.5989C11.4909 26.4395 11.2749 26.3499 11.0496 26.3497H11.0469ZM15.2965 26.3497V14.4503H18.6961V26.3497H15.2965ZM19.548 12.7497H14.4486V11.8996H19.548V12.7497ZM14.4486 28.0497H19.548V28.8997H14.4486V28.0497ZM20.3973 26.3497V14.4503C20.5089 14.4503 20.6194 14.4283 20.7225 14.3856C20.8257 14.3429 20.9194 14.2803 20.9983 14.2014C21.0772 14.1224 21.1398 14.0287 21.1825 13.9256C21.2252 13.8225 21.2472 13.7119 21.2472 13.6003V11.9003H22.0971V13.6003C22.0971 13.7119 22.1191 13.8225 22.1618 13.9256C22.2045 14.0287 22.2671 14.1224 22.3461 14.2014C22.425 14.2803 22.5187 14.3429 22.6218 14.3856C22.7249 14.4283 22.8354 14.4503 22.947 14.4503V26.3497C22.7216 26.3497 22.5055 26.4393 22.3461 26.5987C22.1867 26.7581 22.0971 26.9743 22.0971 27.1997V28.8997H21.2479V27.1997C21.2479 26.9743 21.1583 26.7581 20.9989 26.5987C20.8396 26.4393 20.6234 26.3497 20.398 26.3497H20.3973ZM23.797 28.0497H28.8958V28.8997H23.797V28.0497ZM28.0465 26.3497H24.6469V14.4503H28.0465V26.3497ZM28.8965 12.7497H23.797V11.8996H28.8958L28.8965 12.7497ZM2.12877 10.2003C1.84989 10.2003 1.75295 9.98448 1.71975 9.85565C1.69651 9.76534 1.64472 9.45721 1.94285 9.29651L14.7812 2.27069C15.4604 1.89655 16.2232 1.70036 16.9986 1.70036C17.774 1.70036 18.5369 1.89655 19.2161 2.27069L32.0538 9.29651C32.3519 9.4592 32.3001 9.76534 32.2769 9.85565C32.2443 9.98448 32.1441 10.2003 31.8678 10.2003H2.12877ZM10.1996 11.9003V12.7497H5.10082V11.8996L10.1996 11.9003ZM5.95007 14.4503H9.34973V26.3497H5.95007V14.4503ZM1.84657 32.2998C2.02278 31.8031 2.34832 31.373 2.77854 31.0687C3.20876 30.7643 3.7226 30.6005 4.24958 30.5998H29.747C30.2741 30.6004 30.7881 30.7641 31.2185 31.0685C31.6488 31.3729 31.9745 31.803 32.1507 32.2998H1.84657ZM16.9983 8.49963C17.5026 8.49963 17.9956 8.35007 18.4149 8.06987C18.8342 7.78967 19.161 7.39142 19.354 6.92546C19.5469 6.45951 19.5974 5.94679 19.4991 5.45213C19.4007 4.95748 19.1578 4.50311 18.8012 4.14648C18.4447 3.78986 17.9903 3.54699 17.4957 3.4486C17.0011 3.35021 16.4885 3.4007 16.0226 3.59371C15.5567 3.78671 15.1584 4.11355 14.8783 4.5329C14.5981 4.95225 14.4486 5.44527 14.4486 5.94961C14.4493 6.6257 14.7181 7.2739 15.1961 7.75197C15.6742 8.23004 16.3223 8.49893 16.9983 8.49963ZM16.9983 5.09961C17.1664 5.09961 17.3307 5.14946 17.4705 5.24286C17.6103 5.33626 17.7192 5.46901 17.7835 5.62433C17.8479 5.77965 17.8647 5.95056 17.8319 6.11544C17.7991 6.28033 17.7181 6.43178 17.5993 6.55066C17.4804 6.66953 17.329 6.75049 17.1641 6.78329C16.9992 6.81608 16.8284 6.79925 16.6731 6.73492C16.5178 6.67058 16.385 6.56163 16.2916 6.42185C16.1982 6.28207 16.1484 6.11773 16.1484 5.94961C16.1487 5.72435 16.2384 5.50842 16.3978 5.34919C16.5571 5.18997 16.7731 5.10045 16.9983 5.10027V5.09961Z" fill="#BFBFBF"/>
</svg>
