<svg width="52" height="40" viewBox="0 0 52 40" fill="none" xmlns="http://www.w3.org/2000/svg">
<path d="M0.216858 7.25303C0.216858 5.56188 0.888667 3.93999 2.08449 2.74416C3.28032 1.54833 4.90221 0.876526 6.59336 0.876526H44.8524C46.5436 0.876526 48.1654 1.54833 49.3613 2.74416C50.5571 3.93999 51.2289 5.56188 51.2289 7.25303V10.4413H0.216858V7.25303ZM0.216858 16.8178V32.7591C0.216858 34.4502 0.888667 36.0721 2.08449 37.2679C3.28032 38.4637 4.90221 39.1356 6.59336 39.1356H44.8524C46.5436 39.1356 48.1654 38.4637 49.3613 37.2679C50.5571 36.0721 51.2289 34.4502 51.2289 32.7591V16.8178H0.216858ZM9.78162 23.1943H12.9699C13.8154 23.1943 14.6264 23.5302 15.2243 24.1281C15.8222 24.726 16.1581 25.537 16.1581 26.3825V29.5708C16.1581 30.4164 15.8222 31.2273 15.2243 31.8252C14.6264 32.4231 13.8154 32.7591 12.9699 32.7591H9.78162C8.93604 32.7591 8.12509 32.4231 7.52718 31.8252C6.92927 31.2273 6.59336 30.4164 6.59336 29.5708V26.3825C6.59336 25.537 6.92927 24.726 7.52718 24.1281C8.12509 23.5302 8.93604 23.1943 9.78162 23.1943Z" fill="white"/>
</svg>
