<svg width="61" height="62" viewBox="0 0 61 62" fill="none" xmlns="http://www.w3.org/2000/svg">
<path d="M52.3027 2.15606C48.2401 3.01387 45.7619 6.04004 45.0828 10.9844C44.8445 12.6881 44.225 18.1209 44.094 19.6816C43.7246 23.7801 43.3553 27.7713 43.3076 28.0811C43.2719 28.2717 43.2004 29.1295 43.1289 29.9873C43.0693 30.8332 42.9264 32.5012 42.8311 33.6807C42.7238 34.8602 42.5928 36.4924 42.5332 37.3145C42.3068 40.1381 42.0805 41.4844 41.7111 42.2469C41.2227 43.2834 40.5197 44.0221 39.5785 44.4867C38.8518 44.8441 38.6969 44.8799 37.6484 44.8799C36.6 44.8799 36.4451 44.8441 35.7184 44.4867C33.7883 43.5336 32.9662 41.6988 33.2402 38.9109C33.4428 36.6711 33.0615 35.2533 31.9297 34.05C31.5484 33.6449 31.06 33.2875 30.5834 33.073C29.9162 32.7633 29.7256 32.7275 28.5342 32.7275C27.3904 32.7275 27.1522 32.7633 26.6279 33.0135C25.782 33.4305 24.8647 34.3479 24.4834 35.1342C24.0188 36.123 23.8639 37.0523 23.5899 40.3525C23.4588 41.9967 23.2682 43.6527 23.1729 44.034C22.601 46.2143 21.1356 47.5248 19.1102 47.6559C17.5256 47.7512 16.0602 47.1078 15.2024 45.9283C14.285 44.6654 14.1658 43.5455 14.5233 39.5781C14.6543 38.0412 14.8211 36.135 14.8807 35.3486C14.9522 34.5623 15.1428 32.3582 15.3096 30.4639C15.4764 28.5576 15.6908 26.0914 15.7861 24.9834C16.2627 19.2051 16.4295 18.2996 17.1563 17.2393C19.0863 14.4275 23.2086 14.6897 24.7574 17.7158C25.0672 18.3354 25.377 19.8246 25.377 20.7182C25.377 22.1836 25.9488 23.5775 26.9139 24.483C27.7359 25.2574 28.415 25.5314 29.6779 25.6029C30.9885 25.6863 31.7391 25.5076 32.6445 24.9C34.0266 23.9826 34.6699 22.5291 34.9082 19.8604C35.2537 15.8453 35.3967 14.1535 35.5039 12.8906C36.0639 6.34981 35.9805 5.34903 34.8606 4.09805C34.6223 3.83594 34.1457 3.50235 33.8002 3.34747C33.1926 3.06153 33.133 3.06153 29.4873 3.07344C23.018 3.09727 20.2063 3.7168 15.5121 6.15918C10.0674 8.99473 5.93321 13.2481 3.2168 18.7881C2.03731 21.1947 1.40587 23.0533 0.810163 25.877C0.643366 26.699 0.381257 28.8912 0.285944 30.2852C0.166803 32.2033 0.548054 35.7895 1.14376 38.1604C3.60997 48.1324 10.4248 55.6621 19.8012 58.7598C27.4858 61.3094 35.6707 60.666 42.7358 56.9727C45.3807 55.5906 47.5848 53.9346 49.7412 51.7066C52.0406 49.3477 53.4703 47.3104 54.9238 44.3199C56.9135 40.2453 57.9977 35.4201 58.6768 27.6641C58.9151 24.8285 59.1653 21.9453 59.3916 19.4434C59.4988 18.2996 59.6537 16.441 59.749 15.333C60.166 10.2219 60.4043 7.50547 60.5354 6.50469C60.6664 5.45625 60.6545 5.4086 60.3686 4.83672C59.6895 3.51426 58.1645 2.60879 55.8651 2.15606C54.4235 1.88203 53.6252 1.88203 52.3027 2.15606Z" fill="#810EA8"/>
</svg>
