<svg width="26" height="29" viewBox="0 0 26 29" fill="none" xmlns="http://www.w3.org/2000/svg">
<path fill-rule="evenodd" clip-rule="evenodd" d="M14.4167 27.25C14.4167 28.0334 15.05 28.6667 15.8334 28.6667H20.0834C21.5865 28.6667 23.0272 28.0703 24.0897 27.0078C25.1522 25.9453 25.7501 24.5031 25.7501 23C25.7501 22.1868 25.7501 21.5833 25.7501 21.5833C25.7501 20.8013 25.1154 20.1667 24.3334 20.1667H15.8334C15.05 20.1667 14.4167 20.8013 14.4167 21.5833V27.25ZM10.1667 28.6667C10.9487 28.6667 11.5834 28.0334 11.5834 27.25V13.0833C11.5834 12.3013 10.9487 11.6667 10.1667 11.6667H1.66673C0.883311 11.6667 0.250061 12.3013 0.250061 13.0833V23C0.250061 24.5031 0.846474 25.9453 1.90897 27.0078C2.97147 28.0703 4.41364 28.6667 5.91673 28.6667H10.1667ZM22.9167 23H17.2501V25.8333H20.0834C20.8342 25.8333 21.5553 25.5358 22.0866 25.0046C22.6178 24.4733 22.9167 23.7523 22.9167 23ZM8.75006 25.8333V14.5H3.08339V23C3.08339 23.7523 3.38089 24.4733 3.91356 25.0046C4.44481 25.5358 5.16448 25.8333 5.91673 25.8333H8.75006ZM15.8334 0.333344C15.05 0.333344 14.4167 0.96801 14.4167 1.75001V15.9167C14.4167 16.7001 15.05 17.3333 15.8334 17.3333H24.3334C25.1154 17.3333 25.7501 16.7001 25.7501 15.9167V6.00001C25.7501 4.49834 25.1522 3.05617 24.0897 1.99367C23.0272 0.931173 21.5865 0.333344 20.0834 0.333344H15.8334ZM17.2501 3.16668V14.5H22.9167V6.00001C22.9167 5.24918 22.6178 4.52809 22.0866 3.99684C21.5553 3.46559 20.8342 3.16668 20.0834 3.16668H17.2501ZM11.5834 1.75001C11.5834 0.96801 10.9487 0.333344 10.1667 0.333344H5.91673C4.41364 0.333344 2.97147 0.931173 1.90897 1.99367C0.846474 3.05617 0.250061 4.49834 0.250061 6.00001V7.41668C0.250061 8.20009 0.883311 8.83334 1.66673 8.83334H10.1667C10.9487 8.83334 11.5834 8.20009 11.5834 7.41668V1.75001ZM8.75006 3.16668H5.91673C5.16448 3.16668 4.44481 3.46559 3.91356 3.99684C3.38089 4.52809 3.08339 5.24918 3.08339 6.00001H8.75006V3.16668Z" fill="#BFBFBF"/>
</svg>
