<svg width="32" height="32" viewBox="0 0 32 32" fill="none" xmlns="http://www.w3.org/2000/svg">
<path d="M25.9165 0.416687H6.08317C4.58028 0.416687 3.13894 1.01371 2.07623 2.07642C1.01353 3.13912 0.416504 4.58046 0.416504 6.08335V16C0.416504 16.3757 0.565759 16.7361 0.831436 17.0018C1.09711 17.2674 1.45745 17.4167 1.83317 17.4167H8.9165V30.1667C8.91583 30.4376 8.99289 30.7031 9.13852 30.9316C9.28416 31.1601 9.49227 31.342 9.73817 31.4559C9.98465 31.5693 10.2585 31.6096 10.5273 31.5719C10.796 31.5343 11.0482 31.4202 11.254 31.2434L15.2915 27.7867L19.329 31.2434C19.5856 31.4628 19.9122 31.5834 20.2498 31.5834C20.5875 31.5834 20.9141 31.4628 21.1707 31.2434L25.2082 27.7867L29.2457 31.2434C29.5023 31.4628 29.8289 31.5834 30.1665 31.5834C30.3715 31.5819 30.574 31.5385 30.7615 31.4559C31.0074 31.342 31.2155 31.1601 31.3612 30.9316C31.5068 30.7031 31.5838 30.4376 31.5832 30.1667V6.08335C31.5832 4.58046 30.9862 3.13912 29.9234 2.07642C28.8607 1.01371 27.4194 0.416687 25.9165 0.416687ZM3.24984 14.5834V6.08335C3.24984 5.33191 3.54835 4.61124 4.0797 4.07988C4.61105 3.54853 5.33172 3.25002 6.08317 3.25002C6.83462 3.25002 7.55529 3.54853 8.08664 4.07988C8.61799 4.61124 8.9165 5.33191 8.9165 6.08335V14.5834H3.24984ZM28.7498 27.0925L26.129 24.84C25.8724 24.6205 25.5458 24.4999 25.2082 24.4999C24.8705 24.4999 24.5439 24.6205 24.2873 24.84L20.2498 28.2967L16.2123 24.84C15.9557 24.6205 15.6292 24.4999 15.2915 24.4999C14.9538 24.4999 14.6273 24.6205 14.3707 24.84L11.7498 27.0925V6.08335C11.7481 5.08812 11.4842 4.1109 10.9848 3.25002H25.9165C26.668 3.25002 27.3886 3.54853 27.92 4.07988C28.4513 4.61124 28.7498 5.33191 28.7498 6.08335V27.0925ZM25.9165 7.50002C25.9165 7.87574 25.7673 8.23608 25.5016 8.50175C25.2359 8.76743 24.8756 8.91669 24.4998 8.91669H15.9998C15.6241 8.91669 15.2638 8.76743 14.9981 8.50175C14.7324 8.23608 14.5832 7.87574 14.5832 7.50002C14.5832 7.1243 14.7324 6.76396 14.9981 6.49829C15.2638 6.23261 15.6241 6.08335 15.9998 6.08335H24.4998C24.8756 6.08335 25.2359 6.23261 25.5016 6.49829C25.7673 6.76396 25.9165 7.1243 25.9165 7.50002ZM25.9165 13.1667C25.9165 13.5424 25.7673 13.9027 25.5016 14.1684C25.2359 14.4341 24.8756 14.5834 24.4998 14.5834H15.9998C15.6241 14.5834 15.2638 14.4341 14.9981 14.1684C14.7324 13.9027 14.5832 13.5424 14.5832 13.1667C14.5832 12.791 14.7324 12.4306 14.9981 12.165C15.2638 11.8993 15.6241 11.75 15.9998 11.75H24.4998C24.8756 11.75 25.2359 11.8993 25.5016 12.165C25.7673 12.4306 25.9165 12.791 25.9165 13.1667ZM25.9165 18.8334C25.9165 19.2091 25.7673 19.5694 25.5016 19.8351C25.2359 20.1008 24.8756 20.25 24.4998 20.25H15.9998C15.6241 20.25 15.2638 20.1008 14.9981 19.8351C14.7324 19.5694 14.5832 19.2091 14.5832 18.8334C14.5832 18.4576 14.7324 18.0973 14.9981 17.8316C15.2638 17.5659 15.6241 17.4167 15.9998 17.4167H24.4998C24.8756 17.4167 25.2359 17.5659 25.5016 17.8316C25.7673 18.0973 25.9165 18.4576 25.9165 18.8334Z" fill="#BFBFBF"/>
</svg>
