<svg width="32" height="29" viewBox="0 0 32 29" fill="none" xmlns="http://www.w3.org/2000/svg">
<path d="M28.75 13.344V7.41664C28.75 7.04092 28.6008 6.68058 28.3351 6.4149C28.0694 6.14923 27.7091 5.99997 27.3334 5.99997H4.66669C4.29096 5.99997 3.93063 5.85072 3.66495 5.58504C3.39928 5.31936 3.25002 4.95903 3.25002 4.58331C3.25002 4.20758 3.39928 3.84725 3.66495 3.58157C3.93063 3.31589 4.29096 3.16664 4.66669 3.16664H27.3334C27.7091 3.16664 28.0694 3.01738 28.3351 2.75171C28.6008 2.48603 28.75 2.1257 28.75 1.74997C28.75 1.37425 28.6008 1.01391 28.3351 0.748237C28.0694 0.482561 27.7091 0.333305 27.3334 0.333305H4.66669C3.53952 0.333305 2.45851 0.781072 1.66148 1.5781C0.864454 2.37513 0.416687 3.45614 0.416687 4.58331V24.4166C0.416687 25.5438 0.864454 26.6248 1.66148 27.4218C2.45851 28.2189 3.53952 28.6666 4.66669 28.6666H27.3334C27.7091 28.6666 28.0694 28.5174 28.3351 28.2517C28.6008 27.986 28.75 27.6257 28.75 27.25V21.3226C29.5781 21.0341 30.2959 20.4951 30.8039 19.7803C31.3118 19.0654 31.5847 18.2102 31.5847 17.3333C31.5847 16.4564 31.3118 15.6012 30.8039 14.8864C30.2959 14.1715 29.5781 13.6325 28.75 13.344ZM25.9167 25.8333H4.66669C4.29096 25.8333 3.93063 25.6841 3.66495 25.4184C3.39928 25.1527 3.25002 24.7924 3.25002 24.4166V8.57264C3.70372 8.74043 4.18298 8.82861 4.66669 8.83331H25.9167V13.0833H21.6667C20.5395 13.0833 19.4585 13.5311 18.6615 14.3281C17.8645 15.1251 17.4167 16.2061 17.4167 17.3333C17.4167 18.4605 17.8645 19.5415 18.6615 20.3385C19.4585 21.1355 20.5395 21.5833 21.6667 21.5833H25.9167V25.8333ZM27.3334 18.75H21.6667C21.291 18.75 20.9306 18.6007 20.665 18.335C20.3993 18.0694 20.25 17.709 20.25 17.3333C20.25 16.9576 20.3993 16.5972 20.665 16.3316C20.9306 16.0659 21.291 15.9166 21.6667 15.9166H27.3334C27.7091 15.9166 28.0694 16.0659 28.3351 16.3316C28.6008 16.5972 28.75 16.9576 28.75 17.3333C28.75 17.709 28.6008 18.0694 28.3351 18.335C28.0694 18.6007 27.7091 18.75 27.3334 18.75Z" fill="#BFBFBF"/>
</svg>
