<svg width="33" height="33" viewBox="0 0 33 33" fill="none" xmlns="http://www.w3.org/2000/svg">
<path d="M20.6536 30.3633H20.4803C14.5603 30.3633 11.7069 28.03 11.2136 22.8033C11.1603 22.2566 11.5603 21.7633 12.1203 21.71C12.6536 21.6566 13.1603 22.07 13.2136 22.6166C13.6003 26.8033 15.5736 28.3633 20.4936 28.3633H20.6669C26.0936 28.3633 28.0136 26.4433 28.0136 21.0166V12.3233C28.0136 6.89662 26.0936 4.97662 20.6669 4.97662H20.4936C15.5469 4.97662 13.5736 6.56329 13.2136 10.83C13.1469 11.3766 12.6803 11.79 12.1203 11.7366C11.5603 11.6966 11.1603 11.2033 11.2003 10.6566C11.6536 5.34996 14.5203 2.97662 20.4803 2.97662H20.6536C27.2003 2.97662 30.0003 5.77662 30.0003 12.3233V21.0166C30.0003 27.5633 27.2003 30.3633 20.6536 30.3633Z" fill="#EF4444"/>
<path d="M20.3335 17.6699H5.16016C4.61349 17.6699 4.16016 17.2166 4.16016 16.6699C4.16016 16.1233 4.61349 15.6699 5.16016 15.6699H20.3335C20.8802 15.6699 21.3335 16.1233 21.3335 16.6699C21.3335 17.2166 20.8802 17.6699 20.3335 17.6699Z" fill="#EF4444"/>
<path d="M8.1335 22.1365C7.88017 22.1365 7.62683 22.0432 7.42683 21.8432L2.96017 17.3765C2.5735 16.9899 2.5735 16.3499 2.96017 15.9632L7.42683 11.4965C7.8135 11.1099 8.4535 11.1099 8.84017 11.4965C9.22683 11.8832 9.22683 12.5232 8.84017 12.9099L5.08017 16.6699L8.84017 20.4299C9.22683 20.8165 9.22683 21.4565 8.84017 21.8432C8.6535 22.0432 8.38683 22.1365 8.1335 22.1365Z" fill="#EF4444"/>
</svg>
