<svg width="55" height="55" viewBox="0 0 55 55" fill="none" xmlns="http://www.w3.org/2000/svg">
<path d="M19.7871 34.6621H35.1684" stroke="#091E46" stroke-linecap="round" stroke-linejoin="round"/>
<path d="M20.748 27.9324C20.748 24.2159 23.7609 21.2031 27.4773 21.2031V21.2031C31.1938 21.2031 34.2066 24.2159 34.2066 27.9324V34.6617H20.748V27.9324Z" stroke="#091E46" stroke-linecap="round" stroke-linejoin="round"/>
<path d="M25.8124 34.6617V34.1617C25.634 34.1617 25.4691 34.2568 25.3797 34.4111L25.8124 34.6617ZM29.1423 34.6617L29.575 34.4111C29.4856 34.2568 29.3207 34.1617 29.1423 34.1617V34.6617ZM26.0547 35.6238C26.0547 35.3636 26.1241 35.1212 26.245 34.9123L25.3797 34.4111C25.1729 34.7682 25.0547 35.183 25.0547 35.6238H26.0547ZM27.4773 37.0465C26.6916 37.0465 26.0547 36.4095 26.0547 35.6238H25.0547C25.0547 36.9618 26.1393 38.0465 27.4773 38.0465V37.0465ZM28.9 35.6238C28.9 36.4095 28.2631 37.0465 27.4773 37.0465V38.0465C28.8153 38.0465 29.9 36.9618 29.9 35.6238H28.9ZM28.7096 34.9123C28.8306 35.1212 28.9 35.3636 28.9 35.6238H29.9C29.9 35.183 29.7818 34.7682 29.575 34.4111L28.7096 34.9123ZM29.1423 34.1617H25.8124V35.1617H29.1423V34.1617Z" fill="#091E46"/>
<circle cx="31.4563" cy="21.3098" r="3.04421" fill="#FA5F1C"/>
<circle cx="27.3979" cy="27.3979" r="26.8979" stroke="#E9E9E9"/>
</svg>
