<svg width="34" height="34" viewBox="0 0 34 34" fill="none" xmlns="http://www.w3.org/2000/svg">
<path d="M0 1.45725C0 1.07076 0.153531 0.700103 0.426817 0.426817C0.700103 0.153531 1.07076 0 1.45724 0H2.54144C4.38728 0 5.49478 1.24157 6.12626 2.39571C6.54789 3.16514 6.85294 4.05697 7.09192 4.86526C7.15657 4.86015 7.22138 4.85756 7.28622 4.85748H31.5697C33.1824 4.85748 34.3482 6.40022 33.9052 7.95267L30.3534 20.4053C30.035 21.5223 29.3613 22.505 28.4343 23.2048C27.5073 23.9046 26.3776 24.2833 25.2162 24.2835H13.6592C12.4886 24.2836 11.3503 23.8992 10.4193 23.1894C9.48841 22.4796 8.81633 21.4837 8.50642 20.3548L7.02975 14.9688L4.58158 6.71498L4.57963 6.69944C4.27653 5.59776 3.99285 4.56603 3.56928 3.79661C3.16319 3.04856 2.83677 2.91449 2.54338 2.91449H1.45724C1.07076 2.91449 0.700103 2.76096 0.426817 2.48767C0.153531 2.21439 0 1.84373 0 1.45725ZM9.8568 14.2616L11.316 19.5834C11.6074 20.6365 12.5653 21.369 13.6592 21.369H25.2162C25.7441 21.369 26.2576 21.197 26.679 20.879C27.1005 20.561 27.4068 20.1144 27.5516 19.6067L30.9266 7.77197H7.93713L9.8296 14.1586L9.8568 14.2616Z" fill="#BFBFBF"/>
<path d="M16.5151 30.1164C16.5151 31.1471 16.1057 32.1355 15.377 32.8642C14.6482 33.593 13.6598 34.0024 12.6292 34.0024C11.5985 34.0024 10.6101 33.593 9.88134 32.8642C9.15258 32.1355 8.74316 31.1471 8.74316 30.1164C8.74316 29.0858 9.15258 28.0974 9.88134 27.3686C10.6101 26.6399 11.5985 26.2304 12.6292 26.2304C13.6598 26.2304 14.6482 26.6399 15.377 27.3686C16.1057 28.0974 16.5151 29.0858 16.5151 30.1164ZM13.6006 30.1164C13.6006 29.8588 13.4983 29.6117 13.3161 29.4295C13.1339 29.2473 12.8868 29.1449 12.6292 29.1449C12.3715 29.1449 12.1244 29.2473 11.9422 29.4295C11.76 29.6117 11.6577 29.8588 11.6577 30.1164C11.6577 30.3741 11.76 30.6212 11.9422 30.8034C12.1244 30.9856 12.3715 31.0879 12.6292 31.0879C12.8868 31.0879 13.1339 30.9856 13.3161 30.8034C13.4983 30.6212 13.6006 30.3741 13.6006 30.1164Z" fill="#BFBFBF"/>
<path d="M30.116 30.1164C30.116 31.1471 29.7066 32.1355 28.9778 32.8642C28.249 33.593 27.2606 34.0024 26.23 34.0024C25.1994 34.0024 24.2109 33.593 23.4822 32.8642C22.7534 32.1355 22.344 31.1471 22.344 30.1164C22.344 29.0858 22.7534 28.0974 23.4822 27.3686C24.2109 26.6399 25.1994 26.2304 26.23 26.2304C27.2606 26.2304 28.249 26.6399 28.9778 27.3686C29.7066 28.0974 30.116 29.0858 30.116 30.1164ZM27.2015 30.1164C27.2015 29.8588 27.0991 29.6117 26.9169 29.4295C26.7347 29.2473 26.4876 29.1449 26.23 29.1449C25.9723 29.1449 25.7252 29.2473 25.543 29.4295C25.3608 29.6117 25.2585 29.8588 25.2585 30.1164C25.2585 30.3741 25.3608 30.6212 25.543 30.8034C25.7252 30.9856 25.9723 31.0879 26.23 31.0879C26.4876 31.0879 26.7347 30.9856 26.9169 30.8034C27.0991 30.6212 27.2015 30.3741 27.2015 30.1164Z" fill="#BFBFBF"/>
</svg>
