<svg width="35" height="34" viewBox="0 0 35 34" fill="none" xmlns="http://www.w3.org/2000/svg">
<path d="M0.5 1.45725C0.5 1.07076 0.653531 0.700103 0.926817 0.426817C1.2001 0.153531 1.57076 0 1.95724 0H3.04144C4.88728 0 5.99478 1.24157 6.62626 2.39571C7.04789 3.16514 7.35294 4.05697 7.59192 4.86526C7.65657 4.86015 7.72138 4.85756 7.78622 4.85748H32.0697C33.6824 4.85748 34.8482 6.40022 34.4052 7.95267L30.8534 20.4053C30.535 21.5223 29.8613 22.505 28.9343 23.2048C28.0073 23.9046 26.8776 24.2833 25.7162 24.2835H14.1592C12.9886 24.2836 11.8503 23.8992 10.9193 23.1894C9.98841 22.4796 9.31633 21.4837 9.00642 20.3548L7.52975 14.9688L5.08158 6.71498L5.07963 6.69944C4.77653 5.59776 4.49285 4.56603 4.06928 3.79661C3.66319 3.04856 3.33677 2.91449 3.04338 2.91449H1.95724C1.57076 2.91449 1.2001 2.76096 0.926817 2.48767C0.653531 2.21439 0.5 1.84373 0.5 1.45725ZM10.3568 14.2616L11.816 19.5834C12.1074 20.6365 13.0653 21.369 14.1592 21.369H25.7162C26.2441 21.369 26.7576 21.197 27.179 20.879C27.6005 20.561 27.9068 20.1144 28.0516 19.6067L31.4266 7.77197H8.43713L10.3296 14.1586L10.3568 14.2616Z" fill="white"/>
<path d="M17.0151 30.1164C17.0151 31.1471 16.6057 32.1355 15.877 32.8642C15.1482 33.593 14.1598 34.0024 13.1292 34.0024C12.0985 34.0024 11.1101 33.593 10.3813 32.8642C9.65258 32.1355 9.24316 31.1471 9.24316 30.1164C9.24316 29.0858 9.65258 28.0974 10.3813 27.3686C11.1101 26.6399 12.0985 26.2304 13.1292 26.2304C14.1598 26.2304 15.1482 26.6399 15.877 27.3686C16.6057 28.0974 17.0151 29.0858 17.0151 30.1164ZM14.1006 30.1164C14.1006 29.8588 13.9983 29.6117 13.8161 29.4295C13.6339 29.2473 13.3868 29.1449 13.1292 29.1449C12.8715 29.1449 12.6244 29.2473 12.4422 29.4295C12.26 29.6117 12.1577 29.8588 12.1577 30.1164C12.1577 30.3741 12.26 30.6212 12.4422 30.8034C12.6244 30.9856 12.8715 31.0879 13.1292 31.0879C13.3868 31.0879 13.6339 30.9856 13.8161 30.8034C13.9983 30.6212 14.1006 30.3741 14.1006 30.1164Z" fill="white"/>
<path d="M30.616 30.1164C30.616 31.1471 30.2066 32.1355 29.4778 32.8642C28.7491 33.593 27.7607 34.0024 26.73 34.0024C25.6994 34.0024 24.711 33.593 23.9822 32.8642C23.2535 32.1355 22.8441 31.1471 22.8441 30.1164C22.8441 29.0858 23.2535 28.0974 23.9822 27.3686C24.711 26.6399 25.6994 26.2304 26.73 26.2304C27.7607 26.2304 28.7491 26.6399 29.4778 27.3686C30.2066 28.0974 30.616 29.0858 30.616 30.1164ZM27.7015 30.1164C27.7015 29.8588 27.5992 29.6117 27.417 29.4295C27.2348 29.2473 26.9877 29.1449 26.73 29.1449C26.4724 29.1449 26.2253 29.2473 26.0431 29.4295C25.8609 29.6117 25.7585 29.8588 25.7585 30.1164C25.7585 30.3741 25.8609 30.6212 26.0431 30.8034C26.2253 30.9856 26.4724 31.0879 26.73 31.0879C26.9877 31.0879 27.2348 30.9856 27.417 30.8034C27.5992 30.6212 27.7015 30.3741 27.7015 30.1164Z" fill="white"/>
</svg>
