<svg width="33" height="32" viewBox="0 0 33 32" fill="none" xmlns="http://www.w3.org/2000/svg">
<g clip-path="url(#clip0_2_3929)">
<path d="M16.7859 20.0004C18.995 20.0004 20.7859 18.2095 20.7859 16.0004C20.7859 13.7912 18.995 12.0004 16.7859 12.0004C14.5767 12.0004 12.7859 13.7912 12.7859 16.0004C12.7859 18.2095 14.5767 20.0004 16.7859 20.0004Z" stroke="#BFBFBF" stroke-width="2.70237" stroke-linecap="round" stroke-linejoin="round"/>
<path d="M26.6525 20.0002C26.475 20.4024 26.422 20.8485 26.5005 21.281C26.5789 21.7135 26.7851 22.1127 27.0925 22.4269L27.1725 22.5069C27.4204 22.7546 27.6171 23.0487 27.7513 23.3724C27.8855 23.6961 27.9546 24.0431 27.9546 24.3936C27.9546 24.744 27.8855 25.091 27.7513 25.4147C27.6171 25.7385 27.4204 26.0326 27.1725 26.2802C26.9248 26.5282 26.6307 26.7249 26.307 26.8591C25.9833 26.9932 25.6362 27.0623 25.2858 27.0623C24.9354 27.0623 24.5884 26.9932 24.2646 26.8591C23.9409 26.7249 23.6468 26.5282 23.3991 26.2802L23.3191 26.2002C23.0049 25.8928 22.6058 25.6866 22.1733 25.6082C21.7407 25.5298 21.2946 25.5827 20.8925 25.7602C20.4981 25.9292 20.1618 26.2099 19.9249 26.5676C19.688 26.9253 19.5609 27.3445 19.5591 27.7736V28.0002C19.5591 28.7075 19.2782 29.3857 18.7781 29.8858C18.278 30.3859 17.5997 30.6669 16.8925 30.6669C16.1852 30.6669 15.507 30.3859 15.0069 29.8858C14.5068 29.3857 14.2258 28.7075 14.2258 28.0002V27.8802C14.2155 27.4389 14.0726 27.0109 13.8158 26.6518C13.559 26.2928 13.2001 26.0193 12.7858 25.8669C12.3837 25.6894 11.9375 25.6365 11.505 25.7149C11.0725 25.7933 10.6734 25.9995 10.3591 26.3069L10.2791 26.3869C10.0315 26.6348 9.73738 26.8315 9.41365 26.9657C9.08992 27.0999 8.74291 27.169 8.39247 27.169C8.04203 27.169 7.69503 27.0999 7.3713 26.9657C7.04757 26.8315 6.75347 26.6348 6.50581 26.3869C6.25787 26.1392 6.06118 25.8451 5.92698 25.5214C5.79278 25.1977 5.72371 24.8507 5.72371 24.5002C5.72371 24.1498 5.79278 23.8028 5.92698 23.4791C6.06118 23.1553 6.25787 22.8612 6.50581 22.6136L6.58581 22.5336C6.89319 22.2193 7.09939 21.8202 7.17781 21.3877C7.25624 20.9551 7.20329 20.509 7.02581 20.1069C6.85679 19.7125 6.57615 19.3762 6.21843 19.1393C5.86071 18.9024 5.44152 18.7753 5.01247 18.7736H4.78581C4.07856 18.7736 3.40029 18.4926 2.90019 17.9925C2.40009 17.4924 2.11914 16.8141 2.11914 16.1069C2.11914 15.3996 2.40009 14.7214 2.90019 14.2213C3.40029 13.7212 4.07856 13.4402 4.78581 13.4402H4.90581C5.34713 13.4299 5.77515 13.287 6.13421 13.0302C6.49327 12.7734 6.76676 12.4145 6.91914 12.0002C7.09663 11.5981 7.14957 11.152 7.07115 10.7194C6.99272 10.2869 6.78652 9.8878 6.47914 9.57356L6.39914 9.49356C6.1512 9.2459 5.95451 8.95179 5.82031 8.62806C5.68612 8.30434 5.61704 7.95733 5.61704 7.60689C5.61704 7.25645 5.68612 6.90944 5.82031 6.58572C5.95451 6.26199 6.1512 5.96789 6.39914 5.72022C6.6468 5.47229 6.9409 5.2756 7.26463 5.1414C7.58836 5.0072 7.93537 4.93813 8.28581 4.93813C8.63625 4.93813 8.98325 5.0072 9.30698 5.1414C9.63071 5.2756 9.92481 5.47229 10.1725 5.72022L10.2525 5.80022C10.5667 6.10761 10.9658 6.3138 11.3984 6.39223C11.8309 6.47066 12.277 6.41771 12.6791 6.24022H12.7858C13.1802 6.07121 13.5165 5.79056 13.7534 5.43284C13.9903 5.07512 14.1174 4.65594 14.1191 4.22689V4.00022C14.1191 3.29298 14.4001 2.6147 14.9002 2.11461C15.4003 1.61451 16.0786 1.33356 16.7858 1.33356C17.4931 1.33356 18.1713 1.61451 18.6714 2.11461C19.1715 2.6147 19.4525 3.29298 19.4525 4.00022V4.12022C19.4542 4.54927 19.5813 4.96846 19.8182 5.32618C20.0551 5.6839 20.3914 5.96454 20.7858 6.13356C21.188 6.31104 21.6341 6.36399 22.0666 6.28556C22.4991 6.20714 22.8982 6.00094 23.2125 5.69356L23.2925 5.61356C23.5401 5.36562 23.8342 5.16893 24.158 5.03473C24.4817 4.90053 24.8287 4.83146 25.1791 4.83146C25.5296 4.83146 25.8766 4.90053 26.2003 5.03473C26.524 5.16893 26.8181 5.36562 27.0658 5.61356C27.3137 5.86122 27.5104 6.15532 27.6446 6.47905C27.7788 6.80278 27.8479 7.14978 27.8479 7.50022C27.8479 7.85067 27.7788 8.19767 27.6446 8.5214C27.5104 8.84513 27.3137 9.13923 27.0658 9.38689L26.9858 9.46689C26.6784 9.78113 26.4722 10.1802 26.3938 10.6128C26.3154 11.0453 26.3683 11.4914 26.5458 11.8936V12.0002C26.7148 12.3946 26.9955 12.7309 27.3532 12.9678C27.7109 13.2047 28.1301 13.3318 28.5591 13.3336H28.7858C29.493 13.3336 30.1713 13.6145 30.6714 14.1146C31.1715 14.6147 31.4525 15.293 31.4525 16.0002C31.4525 16.7075 31.1715 17.3857 30.6714 17.8858C30.1713 18.3859 29.493 18.6669 28.7858 18.6669H28.6658C28.2368 18.6686 27.8176 18.7957 27.4599 19.0326C27.1021 19.2695 26.8215 19.6059 26.6525 20.0002V20.0002Z" stroke="#BFBFBF" stroke-width="2.70237" stroke-linecap="round" stroke-linejoin="round"/>
</g>
<defs>
<clipPath id="clip0_2_3929">
<rect width="32" height="32" fill="white" transform="translate(0.785889)"/>
</clipPath>
</defs>
</svg>
