<svg width="32" height="34" viewBox="0 0 32 34" fill="none" xmlns="http://www.w3.org/2000/svg">
<path d="M8 5.125H4.75C3.88805 5.125 3.0614 5.46741 2.4519 6.0769C1.84241 6.6864 1.5 7.51305 1.5 8.375V27.875C1.5 28.737 1.84241 29.5636 2.4519 30.1731C3.0614 30.7826 3.88805 31.125 4.75 31.125H14.0076" stroke="#BFBFBF" stroke-width="2" stroke-linecap="round" stroke-linejoin="round"/>
<path d="M24.25 19.75V26.25H30.75" stroke="#BFBFBF" stroke-width="2" stroke-linecap="round" stroke-linejoin="round"/>
<path d="M24.25 14.875V8.375C24.25 7.51305 23.9076 6.6864 23.2981 6.0769C22.6886 5.46741 21.862 5.125 21 5.125H17.75" stroke="#BFBFBF" stroke-width="2" stroke-linecap="round" stroke-linejoin="round"/>
<path d="M14.5 1.875H11.25C9.45507 1.875 8 3.33007 8 5.125C8 6.91993 9.45507 8.375 11.25 8.375H14.5C16.2949 8.375 17.75 6.91993 17.75 5.125C17.75 3.33007 16.2949 1.875 14.5 1.875Z" stroke="#BFBFBF" stroke-width="2" stroke-linecap="round" stroke-linejoin="round"/>
<path d="M24.25 32.75C27.8399 32.75 30.75 29.8399 30.75 26.25C30.75 22.6601 27.8399 19.75 24.25 19.75C20.6601 19.75 17.75 22.6601 17.75 26.25C17.75 29.8399 20.6601 32.75 24.25 32.75Z" stroke="#BFBFBF" stroke-width="2" stroke-linecap="round" stroke-linejoin="round"/>
<path d="M8 14.875H14.5" stroke="#BFBFBF" stroke-width="2" stroke-linecap="round" stroke-linejoin="round"/>
<path d="M8 21.375H12.875" stroke="#BFBFBF" stroke-width="2" stroke-linecap="round" stroke-linejoin="round"/>
</svg>
